<svg height='100px' width='100px' fill="#998A8A" xmlns="http://www.w3.org/2000/svg" xmlns:xlink="http://www.w3.org/1999/xlink" version="1.1" x="0px" y="0px" viewBox="216 645.5 100 100" enable-background="new 216 645.5 100 100" xml:space="preserve"><path fill="#998A8A" d="M301.124,677.032c0-0.003-0.002-0.005-0.002-0.008c-0.007-0.107-0.042-0.209-0.095-0.302  c-0.014-0.026-0.034-0.045-0.052-0.069c-0.047-0.062-0.101-0.116-0.166-0.161c-0.017-0.011-0.024-0.03-0.042-0.04l-7.057-4.031  c-0.198-0.114-0.44-0.124-0.649-0.027L266,684.928l-27.062-12.534c-0.209-0.097-0.451-0.087-0.649,0.027l-7.056,4.031  c-0.018,0.01-0.025,0.029-0.042,0.04c-0.065,0.045-0.118,0.098-0.165,0.16c-0.018,0.024-0.039,0.044-0.054,0.071  c-0.052,0.093-0.087,0.193-0.094,0.301c0,0.003-0.002,0.005-0.002,0.008c-0.001,0.016,0.009,0.028,0.009,0.044  c0.001,0.073,0.004,0.146,0.028,0.219l6.048,17.856c0.073,0.218,0.249,0.387,0.47,0.452l5.329,1.574l-2.659,3.354  c-0.143,0.181-0.189,0.419-0.124,0.641l2.88,9.792c0.019,0.063,0.047,0.125,0.082,0.182l3.312,5.185  c0.03,0.046,0.07,0.083,0.109,0.121c0.013,0.013,0.022,0.029,0.037,0.041c0.062,0.051,0.13,0.093,0.206,0.121l5.473,2.016  c0.016,0.006,0.031,0.004,0.047,0.009c0.018,0.005,0.032,0.016,0.05,0.02c0.05,0.01,0.1,0.016,0.148,0.016  c0.124,0,0.242-0.039,0.349-0.099c0.011-0.007,0.021-0.01,0.032-0.017c0.098-0.062,0.175-0.151,0.233-0.257  c0.005-0.011,0.018-0.015,0.022-0.025l9.963-20.364l-1.266,6.32c-0.039,0.195,0.007,0.398,0.125,0.559l3.65,4.954  c0.016,0.021,0.041,0.03,0.059,0.05c0.031,0.033,0.054,0.072,0.092,0.101c0.022,0.017,0.049,0.023,0.073,0.038  c0.023,0.013,0.045,0.025,0.069,0.036c0.09,0.038,0.183,0.064,0.276,0.064H266h0.001c0.094,0,0.187-0.026,0.276-0.064  c0.024-0.011,0.046-0.023,0.069-0.036c0.024-0.015,0.051-0.021,0.073-0.038c0.038-0.028,0.061-0.067,0.092-0.101  c0.018-0.02,0.043-0.028,0.059-0.05l3.65-4.954c0.118-0.16,0.164-0.363,0.125-0.559l-1.266-6.317l9.963,20.361  c0.005,0.011,0.018,0.015,0.022,0.025c0.059,0.105,0.136,0.195,0.233,0.257c0.011,0.007,0.021,0.01,0.032,0.017  c0.106,0.06,0.225,0.099,0.349,0.099c0.049,0,0.099-0.006,0.148-0.016c0.019-0.004,0.032-0.015,0.05-0.02  c0.016-0.005,0.031-0.003,0.047-0.009l5.473-2.016c0.076-0.028,0.145-0.069,0.206-0.121c0.015-0.012,0.024-0.028,0.038-0.042  c0.039-0.037,0.079-0.074,0.108-0.12l3.312-5.185c0.035-0.057,0.063-0.118,0.082-0.182l2.88-9.792  c0.065-0.222,0.019-0.46-0.124-0.641l-2.659-3.354l5.329-1.574c0.221-0.065,0.396-0.234,0.47-0.452l6.048-17.856  c0.024-0.073,0.027-0.146,0.028-0.219C301.115,677.061,301.125,677.048,301.124,677.032z M293.325,673.833l5.776,3.3l-16.052,11.418  l-14.812-3.099L293.325,673.833z M238.674,673.833l25.088,11.619l-14.812,3.099l-16.052-11.418L238.674,673.833z M232.957,678.914  l15.424,10.971c0.121,0.086,0.265,0.132,0.411,0.132c0.049,0,0.097-0.005,0.146-0.016l13.131-2.747l-18.162,8.785l-5.721-1.69  L232.957,678.914z M241.439,701.124l2.984-3.762l16.875-8.161l-10.063,10.709c-0.002,0.002-0.002,0.004-0.003,0.006  c-0.022,0.023-0.033,0.056-0.052,0.082c-0.035,0.051-0.073,0.1-0.094,0.156c0,0.003-0.002,0.004-0.003,0.006  c-0.128,0.362-3.259,10.316-4.457,14.126l-2.439-3.819L241.439,701.124z M251.178,704.551l0.4,12.385l-3.852-1.419  C248.602,712.731,250.106,707.947,251.178,704.551z M263.801,692.885l-10.864,22.207l-0.467-14.426l12.395-13.189l0.161-0.078  l-1.055,5.265C263.902,692.724,263.844,692.798,263.801,692.885z M266,708.13l-2.894-3.928L266,689.751l2.894,14.451L266,708.13z   M266.975,687.398l0.159,0.077l12.396,13.191l-0.466,14.425l-10.865-22.207c-0.043-0.086-0.101-0.16-0.169-0.22L266.975,687.398z   M280.821,704.551c1.072,3.396,2.577,8.181,3.452,10.966l-3.852,1.419L280.821,704.551z M287.812,710.467l-2.439,3.82  c-1.198-3.811-4.33-13.765-4.458-14.127c-0.001-0.002-0.003-0.003-0.003-0.006c-0.021-0.056-0.058-0.104-0.092-0.153  c-0.02-0.027-0.031-0.062-0.054-0.085c-0.001-0.002-0.001-0.004-0.003-0.006l-10.064-10.71l16.877,8.162l2.984,3.762  L287.812,710.467z M293.814,694.349l-5.721,1.69l-18.162-8.785l13.131,2.747c0.049,0.011,0.097,0.016,0.146,0.016  c0.146,0,0.29-0.046,0.411-0.132l15.424-10.971L293.814,694.349z"></path></svg>